<mxfile host="app.diagrams.net" modified="2023-09-23T19:27:36.042Z" agent="Mozilla/5.0 (Windows NT 10.0; Win64; x64) AppleWebKit/537.36 (KHTML, like Gecko) Chrome/116.0.0.0 Safari/537.36" version="21.7.5" etag="xMWEOk4Gp_8T4EL-dNSK" type="github">
  <diagram name="Page-1" id="kJbWm3H6_3vf7djIysNh">
    <mxGraphModel>
      <root>
        <mxCell id="0" />
        <mxCell id="1" parent="0" />
      </root>
    </mxGraphModel>
  </diagram>
</mxfile>
